<svg xmlns="http://www.w3.org/2000/svg" width="200" height="150" viewBox="0 0 200 150">
  <g id="Path_1" data-name="Path 1" fill="#2c2c2c">
    <path d="M 195 53 L 5 53 L 5 5 L 195 5 L 195 53 Z" stroke="none"/>
    <path d="M 10 10 L 10 48 L 190 48 L 190 10 L 10 10 M 0 0 L 200 0 L 200 58 L 0 58 L 0 0 Z" stroke="none" fill="#c1c1c1"/>
  </g>
  <g id="Rectangle_2" data-name="Rectangle 2" transform="translate(0 58)" fill="#050505" stroke="#8e8e8e" stroke-width="10">
    <rect width="200" height="92" stroke="none"/>
    <rect x="5" y="5" width="190" height="82" fill="none"/>
  </g>
  <rect id="Rectangle_3" data-name="Rectangle 3" width="200" height="8" transform="translate(0 96)" fill="#8e8e8e"/>
  <g id="Rectangle_4" data-name="Rectangle 4" transform="translate(78 92)" fill="#8e8e8e" stroke="#707070" stroke-width="2">
    <rect width="45" height="24" stroke="none"/>
    <rect x="1" y="1" width="43" height="22" fill="none"/>
  </g>
  <circle id="Ellipse_1" data-name="Ellipse 1" cx="3" cy="3" r="3" transform="translate(97 99)" fill="#333"/>
  <rect id="Rectangle_5" data-name="Rectangle 5" width="2" height="6" transform="translate(99 104)" fill="#333"/>
</svg>
